<?xml version="1.0" encoding="UTF-8"?>
<!DOCTYPE svg PUBLIC "-//W3C//DTD SVG 1.1//EN" "http://www.w3.org/Graphics/SVG/1.1/DTD/svg11.dtd">
<!-- Creator: CorelDRAW 2017 -->
<svg xmlns="http://www.w3.org/2000/svg" xml:space="preserve" width="297mm" height="210.001mm" version="1.1" style="shape-rendering:geometricPrecision; text-rendering:geometricPrecision; image-rendering:optimizeQuality; fill-rule:evenodd; clip-rule:evenodd"
viewBox="0 0 29700 21000.14"
 xmlns:xlink="http://www.w3.org/1999/xlink">
 <defs>
  <style type="text/css">
   <![CDATA[
    .fil0 {fill:#F59F2E;fill-rule:nonzero}
   ]]>
  </style>
 </defs>
 <g id="__x0023_Layer_x0020_1">
  <metadata id="CorelCorpID_0Corel-Layer"/>
  <g id="_2032732230064">
   <path class="fil0" d="M12146.82 12288.75c0,57.44 46.93,103.97 103.85,103.97l520.03 0c57.43,0 104.09,-46.53 104.09,-103.97l0 -2168.01c0,-57.29 -46.66,-104.22 -104.09,-104.22l-1739.8 0c-56.92,0 -103.6,46.93 -103.6,104.22l0 804.52c0,502.18 -116.92,828.6 -437.44,928.09 -94.36,29.25 -121.79,51.03 -94.36,152.33l86.66 319.1c21.55,79.86 74.11,99.99 166.16,83.33 619.25,-111.16 972.08,-645.39 972.08,-1490.42l0 -401.68 526.69 0 -0.27 1772.74z"/>
   <path class="fil0" d="M8676.81 9514.2l39.23 -385.4c8.2,-81.67 -41.68,-121.8 -122.06,-121.8l-2624.93 0c-87.97,0 -132.07,38.98 -132.07,121.8l0 360.9c0,97.7 39.12,146.69 136.94,146.69l892.83 0 0 2639.65c0,102.32 9.76,116.95 112.31,116.95l551.05 0c97.95,0 112.56,-19.36 112.56,-126.8l0 -2629.8 858.74 0c102.31,0 165.77,-24.74 175.4,-122.19z"/>
   <path class="fil0" d="M10388.83 11256.03c2.05,-744.76 -275.13,-1312.47 -1048.88,-1312.47 -751.62,0 -1263.81,497.58 -1263.81,1254.01 0,780.52 492.71,1258.87 1268.44,1258.87 282.96,-0.12 625.52,-46.53 883.22,-166.16 77.96,-36.15 108.21,-75.26 86.67,-156.92l-86.67 -330.64c-17.94,-68.98 -77.94,-78.61 -136.67,-53.72 -193.6,81.78 -400.26,126.65 -614.62,126.65 -297.91,-0.12 -570.99,-170.5 -629.57,-478.09l1366.25 0c122.06,0 175.38,-24.35 175.64,-141.53zm-1532.02 -321.81l0 0c34.1,-229.48 195.14,-424.64 439.05,-424.64 253.72,0 375.77,214.77 375.77,424.64l-814.82 0z"/>
   <path class="fil0" d="M22119.84 10016.52l-523.09 0c-57.2,0 -104.12,46.93 -104.12,104.22l0 791.17 -756.93 0 0 -791.17c0,-57.29 -47.44,-104.22 -104.88,-104.22l-522.83 0c-57.19,0 -104.36,46.93 -104.36,104.22l0 2168.14c0,57.81 47.17,104.11 104.36,104.11l522.83 0c57.44,0 104.88,-46.3 104.88,-104.11l0 -855.02 756.93 0 0 855.02c0,57.81 46.92,104.11 104.12,104.11l522.82 0c57.71,0 104.88,-46.3 104.88,-104.11l0 -2168.14c0,-57.29 -47.17,-104.22 -104.61,-104.22z"/>
   <path class="fil0" d="M19508.99 10016.52l-514.36 0c-56.93,0 -102.83,46.93 -102.83,104.22l0 295.4 -803.09 811.94 0 -1107.34c0,-57.29 -46.17,-104.22 -102.83,-104.22l-514.37 0c-56.67,0 -102.83,46.93 -102.83,104.22l0 2168.14c0,57.81 46.16,104.11 102.83,104.11l514.37 0c56.66,0 102.83,-46.41 102.83,-104.11l0 -318.98 803.09 -811.83 -0.25 1130.81c0,57.81 46.4,104.11 103.08,104.11l514.11 0c56.67,0 102.82,-46.3 102.82,-104.11l0 -2168.14c0,-57.29 -46.15,-104.22 -102.57,-104.22z"/>
   <path class="fil0" d="M16056.21 9994.56c-222.06,0 -451.3,93.34 -590.01,211.55l0 -11.54 0 -383.61 -3.19 0 0 -759.75c0,-114.5 -68.72,-121.92 -156.15,-110.26l-411.81 56.02c-67.69,9.49 -108.2,36.15 -108.2,126.55l0 1071.05 0 11.54c-138.72,-118.21 -367.95,-211.55 -590.01,-211.55 -680.47,0 -1024.85,586.29 -1024.85,1210.92 0,645.53 350.01,1302.47 1068.43,1302.47 188.05,0 364.7,-56.34 493.71,-151.32l0 313.82 0 671.24c0,112.2 53.86,151.42 151.29,151.42l38.1 0 406.01 0 38.1 0c97.43,0 151.28,-39.23 151.28,-151.42l0 -671.24 0 -313.82c129.01,95.01 305.67,151.33 493.7,151.33 718.43,0 1068.43,-656.95 1068.43,-1302.48 0,-624.63 -344.37,-1210.92 -1024.83,-1210.92zm-2122.91 1253.87l0 0c0,-296.41 90.52,-658.86 453.28,-658.86 141.8,0 322.57,92.56 400.27,176.41l0 896.93c-3.77,41.33 -11.67,80.3 -22.7,117.18 -90.08,75.11 -232.31,136.82 -362.17,136.82 -355.6,0 -468.68,-376.29 -468.68,-668.48zm1917.77 668.48l0 0c-129.87,0 -272.1,-61.71 -362.18,-136.81 -11.03,-36.87 -18.92,-75.85 -22.69,-117.19l0 -896.93c77.7,-83.85 258.45,-176.41 400.25,-176.41 362.78,0 453.28,362.45 453.28,658.87 0,292.19 -113.08,668.47 -468.66,668.47z"/>
  </g>
 </g>
</svg>
